<mxfile host="app.diagrams.net" agent="Mozilla/5.0 (Windows NT 10.0; Win64; x64) AppleWebKit/537.36 (KHTML, like Gecko) Chrome/133.0.0.0 Safari/537.36" version="26.0.14">
  <diagram name="Página-1" id="Y6foXlTizQClSUQSHSyq">
    <mxGraphModel dx="1438" dy="739" grid="1" gridSize="10" guides="1" tooltips="1" connect="1" arrows="1" fold="1" page="1" pageScale="1" pageWidth="1169" pageHeight="827" math="0" shadow="0">
      <root>
        <mxCell id="0" />
        <mxCell id="1" parent="0" />
        <mxCell id="nSJnDWyblzdT8eG_zGGo-1" value="&lt;p style=&quot;line-height: 80%; margin-top: 10pt; margin-bottom: 8pt; text-indent: 0.49in; direction: ltr; word-break: normal;&quot;&gt;&lt;span style=&quot;color: black; font-weight: bold;&quot;&gt;Criterios de valoración del cuestionario&lt;span style=&quot;mso-spacerun:yes&quot;&gt;&amp;nbsp; &lt;/span&gt;(0, 1 y 2)&lt;/span&gt;&lt;/p&gt;" style="text;whiteSpace=wrap;html=1;fontFamily=Verdana;fontSize=27;align=center;" vertex="1" parent="1">
          <mxGeometry x="130" y="40" width="910" height="70" as="geometry" />
        </mxCell>
        <mxCell id="nSJnDWyblzdT8eG_zGGo-6" style="edgeStyle=orthogonalEdgeStyle;rounded=0;orthogonalLoop=1;jettySize=auto;html=1;entryX=0;entryY=0.5;entryDx=0;entryDy=0;strokeWidth=4;" edge="1" parent="1" source="nSJnDWyblzdT8eG_zGGo-2" target="nSJnDWyblzdT8eG_zGGo-4">
          <mxGeometry relative="1" as="geometry" />
        </mxCell>
        <mxCell id="nSJnDWyblzdT8eG_zGGo-7" style="edgeStyle=orthogonalEdgeStyle;rounded=0;orthogonalLoop=1;jettySize=auto;html=1;entryX=0;entryY=0.5;entryDx=0;entryDy=0;exitX=0.5;exitY=0;exitDx=0;exitDy=0;strokeWidth=4;" edge="1" parent="1" source="nSJnDWyblzdT8eG_zGGo-2" target="nSJnDWyblzdT8eG_zGGo-3">
          <mxGeometry relative="1" as="geometry" />
        </mxCell>
        <mxCell id="nSJnDWyblzdT8eG_zGGo-8" style="edgeStyle=orthogonalEdgeStyle;rounded=0;orthogonalLoop=1;jettySize=auto;html=1;entryX=0;entryY=0.5;entryDx=0;entryDy=0;exitX=0.5;exitY=1;exitDx=0;exitDy=0;strokeWidth=4;" edge="1" parent="1" source="nSJnDWyblzdT8eG_zGGo-2" target="nSJnDWyblzdT8eG_zGGo-5">
          <mxGeometry relative="1" as="geometry" />
        </mxCell>
        <mxCell id="nSJnDWyblzdT8eG_zGGo-2" value="&lt;div&gt;&amp;nbsp;¿Qué pretende que un estudiante aprenda con relación al concepto de electrón?&lt;/div&gt;" style="ellipse;whiteSpace=wrap;html=1;aspect=fixed;fontFamily=Verdana;fontSize=25;fillColor=#f9f7ed;strokeColor=#36393d;" vertex="1" parent="1">
          <mxGeometry x="20" y="250" width="310" height="310" as="geometry" />
        </mxCell>
        <mxCell id="nSJnDWyblzdT8eG_zGGo-3" value="&lt;div&gt;&amp;nbsp;&lt;b&gt;2:&lt;/b&gt; Si se describe el electrón como un objeto cuántico, con masa, carga negativa y un comportamiento dual.&lt;/div&gt;" style="shape=hexagon;perimeter=hexagonPerimeter2;whiteSpace=wrap;html=1;fixedSize=1;fontFamily=Verdana;fontSize=27;fillColor=#f9f7ed;strokeColor=#36393d;align=center;" vertex="1" parent="1">
          <mxGeometry x="520" y="150" width="610" height="150" as="geometry" />
        </mxCell>
        <mxCell id="nSJnDWyblzdT8eG_zGGo-4" value="&lt;div&gt;&lt;b&gt;1:&lt;/b&gt; Si lo describe bien en términos de partícula con carga negativa y ubicado en la periferia del átomo, pero no se enuncia el comportamiento dual.&lt;/div&gt;" style="shape=hexagon;perimeter=hexagonPerimeter2;whiteSpace=wrap;html=1;fixedSize=1;fontFamily=Verdana;fontSize=27;fillColor=#f9f7ed;strokeColor=#36393d;" vertex="1" parent="1">
          <mxGeometry x="520" y="330" width="620" height="150" as="geometry" />
        </mxCell>
        <mxCell id="nSJnDWyblzdT8eG_zGGo-5" value="&lt;div&gt;&amp;nbsp;&lt;b&gt;0:&lt;/b&gt; Si se describe cómo partícula con carga diferente a la negativa o se ubica en el núcleo u otras incorrecciones, no sabe /no responde&amp;nbsp;&lt;/div&gt;" style="shape=hexagon;perimeter=hexagonPerimeter2;whiteSpace=wrap;html=1;fixedSize=1;fontFamily=Verdana;fontSize=27;fillColor=#f9f7ed;strokeColor=#36393d;" vertex="1" parent="1">
          <mxGeometry x="520" y="510" width="620" height="150" as="geometry" />
        </mxCell>
      </root>
    </mxGraphModel>
  </diagram>
</mxfile>
